<?xml version="1.0" standalone="no"?>
<!DOCTYPE svg PUBLIC "-//W3C//DTD SVG 20010904//EN"
 "http://www.w3.org/TR/2001/REC-SVG-20010904/DTD/svg10.dtd">
<svg version="1.0" xmlns="http://www.w3.org/2000/svg"
 width="425.000000pt" height="425.000000pt" viewBox="0 0 425.000000 425.000000"
 preserveAspectRatio="xMidYMid meet">
<metadata>
Created by potrace 1.11, written by Peter Selinger 2001-2013
</metadata>
<g transform="translate(0.000000,425.000000) scale(0.100000,-0.100000)"
fill="#000000" stroke="none">
<path d="M1915 3660 c-3 -6 -4 -14 -1 -19 3 -5 -4 -11 -15 -14 -16 -4 -19 -11
-14 -29 l6 -23 -20 23 c-11 12 -22 28 -24 35 -4 9 -8 8 -16 -3 -10 -13 -13
-12 -26 4 -14 19 -15 17 -15 -23 0 -23 -4 -40 -9 -37 -5 4 -12 0 -15 -6 -3 -7
-3 -3 -1 9 3 12 1 24 -5 28 -5 3 -10 -1 -10 -10 0 -10 -4 -13 -12 -8 -29 18
-88 -15 -88 -49 0 -20 -30 -24 -47 -7 -8 8 -17 8 -30 0 -14 -7 -23 -7 -31 1
-18 18 -27 0 -10 -19 18 -20 34 -143 20 -143 -6 0 -19 20 -31 45 -24 52 -48
66 -66 42 -8 -11 -26 -17 -49 -17 -41 0 -44 -10 -15 -51 19 -27 19 -29 2 -29
-12 -1 -6 -8 19 -23 42 -24 48 -37 19 -37 -25 0 -45 -25 -38 -49 5 -19 3 -19
-27 -4 -30 14 -35 13 -87 -11 -42 -21 -67 -26 -114 -25 -37 1 -72 -4 -90 -13
-17 -8 -36 -13 -43 -10 -8 2 -25 -1 -38 -8 -19 -11 -26 -11 -39 0 -11 9 -19
10 -23 3 -4 -5 -19 -13 -34 -17 -31 -7 -64 -49 -54 -68 21 -40 35 -60 52 -73
18 -13 17 -14 -13 -15 -23 0 -36 -6 -44 -22 l-12 -22 -9 23 c-7 19 -11 21 -23
11 -13 -10 -19 -10 -33 4 -21 19 -62 22 -62 4 0 -22 -35 -87 -47 -88 -25 0
-13 -21 22 -37 23 -11 35 -24 35 -37 0 -33 -12 -43 -60 -56 -25 -7 -50 -16
-57 -22 -6 -5 -20 -8 -29 -6 -15 2 -18 -4 -17 -29 0 -33 -11 -44 -20 -20 -4
10 -7 10 -18 0 -19 -18 -29 -16 -29 6 0 11 -4 22 -10 26 -12 7 -40 -46 -40
-77 -1 -22 -1 -22 -15 -5 -10 14 -18 16 -31 9 -16 -9 -14 -12 17 -32 30 -19
31 -21 9 -17 -14 2 -31 6 -39 8 -7 2 -16 -2 -19 -10 -3 -9 0 -12 10 -9 21 9
92 -34 97 -57 3 -20 3 -20 -18 -1 -12 11 -24 16 -27 13 -4 -3 8 -15 26 -25
l31 -20 -38 -5 c-39 -5 -54 4 -91 59 -11 17 -12 15 -6 -16 3 -19 6 -44 5 -55
-1 -11 -2 -32 -3 -47 0 -16 -7 -28 -17 -30 -11 -3 -5 -9 18 -21 43 -21 44 -21
38 3 -7 29 6 25 32 -11 19 -26 27 -29 52 -24 18 4 29 2 29 -4 0 -6 11 -8 28
-5 15 3 38 1 52 -4 l25 -10 -28 -11 c-16 -6 -35 -11 -43 -11 -8 0 -14 -6 -14
-14 0 -8 -6 -16 -12 -19 -7 -2 -9 -8 -5 -13 5 -5 16 2 26 15 14 19 30 24 72
27 61 5 44 -9 -26 -22 -22 -3 -34 -9 -27 -11 17 -6 15 -23 -3 -23 -10 0 -15
-10 -15 -30 0 -27 -2 -30 -25 -24 -30 7 -33 -9 -5 -29 11 -8 17 -17 13 -20
-11 -11 -41 -8 -55 6 -7 7 -34 13 -62 12 -30 0 -50 5 -53 12 -9 24 -31 13 -43
-19 -9 -29 -12 -31 -21 -16 -8 15 -13 16 -29 5 -11 -6 -20 -18 -20 -26 0 -10
-8 -7 -25 9 -19 18 -25 20 -25 8 0 -9 7 -21 15 -28 17 -14 21 -35 4 -25 -6 4
-17 -2 -25 -14 -8 -12 -24 -21 -35 -21 -19 0 -18 -3 10 -39 l30 -38 -26 -12
c-22 -10 -24 -14 -12 -22 7 -5 24 -9 36 -9 40 0 33 -17 -12 -30 -25 -7 -48
-17 -51 -21 -8 -14 14 -11 45 6 21 10 37 12 61 5 57 -16 97 22 42 41 -28 10
-62 49 -42 49 6 0 13 -7 16 -15 4 -10 15 -12 35 -8 20 4 30 1 34 -9 3 -8 19
-15 35 -15 31 0 73 -29 64 -44 -7 -12 -71 -11 -79 1 -9 15 -25 12 -25 -5 0
-17 3 -18 67 -35 31 -8 41 -15 36 -25 -3 -9 0 -22 7 -30 16 -20 54 -20 47 -1
-3 8 1 17 9 20 23 9 54 7 54 -3 0 -5 17 -12 37 -16 21 -4 45 -13 53 -20 8 -7
46 -16 83 -20 57 -6 66 -9 56 -21 -14 -17 -8 -18 26 -2 14 6 28 9 31 6 6 -7
-31 -84 -46 -93 -5 -3 -10 -14 -10 -23 0 -9 16 7 36 36 19 29 43 55 52 58 9 3
25 10 35 15 21 11 54 4 127 -29 35 -17 49 -27 38 -29 -10 -3 -20 -18 -24 -37
-8 -48 -54 -66 -194 -78 -63 -5 -122 -14 -132 -19 -22 -12 -48 -11 -48 1 0 6
6 10 13 10 15 0 77 61 77 75 0 5 -16 -6 -35 -25 -36 -35 -62 -35 -30 0 10 11
13 20 7 20 -6 0 -19 -12 -29 -26 -16 -24 -18 -25 -25 -8 -6 14 -7 10 -5 -13 2
-18 -1 -34 -7 -36 -6 -2 -4 -11 6 -21 17 -17 31 -14 101 22 18 10 4 -20 -32
-63 -34 -41 -45 -48 -82 -51 -61 -6 -62 -14 -1 -14 56 0 62 4 112 79 l35 52
56 -5 c68 -6 86 -13 93 -33 5 -12 1 -14 -13 -10 -15 4 -25 -4 -40 -29 -16 -27
-17 -34 -6 -34 16 0 18 -9 15 -47 -1 -21 2 -22 57 -19 32 2 71 9 86 15 37 14
37 14 37 -9 0 -11 7 -20 15 -20 8 0 15 -5 15 -11 0 -8 18 -10 59 -6 48 4 59 2
54 -9 -3 -9 2 -14 13 -14 11 0 30 -9 44 -20 28 -22 41 -24 84 -11 40 12 178
33 183 27 2 -2 -16 -15 -40 -29 -25 -15 -71 -49 -104 -76 -47 -39 -70 -51
-116 -60 -31 -5 -79 -20 -107 -32 l-50 -22 -40 27 c-22 14 -47 37 -56 51 -20
30 -33 31 -67 5 -16 -13 -28 -16 -32 -10 -11 17 -23 11 -18 -9 4 -14 -1 -21
-19 -24 -23 -4 -23 -4 2 -6 14 0 42 10 62 24 46 31 52 31 66 1 5 -12 31 -35
57 -50 l47 -28 61 27 c33 15 81 29 106 30 25 2 49 4 52 4 3 1 34 26 70 57 35
31 97 71 137 90 74 34 184 60 203 49 5 -4 16 -2 24 5 7 6 32 10 55 8 l42 -3
-21 -27 c-34 -42 -24 -52 14 -13 39 38 53 39 125 6 45 -21 53 -56 14 -65 -30
-8 -22 -22 15 -28 26 -3 25 -2 75 -108 19 -41 64 -115 99 -165 75 -105 103
-177 87 -221 -6 -16 -29 -50 -51 -76 -21 -26 -35 -49 -29 -53 5 -3 113 -8 240
-12 l230 -6 0 22 c0 12 -18 54 -39 94 -62 115 -65 131 -51 276 7 69 16 134 21
144 8 14 24 17 98 17 81 0 222 27 239 45 6 7 -12 5 -99 -12 -21 -4 -28 0 -38
25 -7 17 -10 36 -6 41 10 17 91 13 105 -4 7 -8 30 -18 51 -21 21 -4 37 -10 34
-14 -2 -4 20 -6 51 -5 30 1 57 -1 59 -5 6 -10 69 1 80 14 6 7 19 16 30 21 17
7 15 9 -15 15 -20 3 -41 9 -47 13 -6 4 -14 3 -17 -2 -3 -5 2 -12 11 -15 12 -5
13 -10 6 -17 -7 -7 -17 -8 -25 -3 -7 4 -47 7 -90 5 -75 -3 -125 10 -113 30 4
5 22 9 42 9 21 0 45 8 56 17 15 13 21 15 24 6 3 -7 15 -13 28 -13 13 0 27 -5
30 -11 5 -7 11 -5 18 4 7 8 35 18 62 22 l50 8 -35 12 -35 12 42 7 c24 4 45 12
49 17 8 13 -51 11 -82 -3 -22 -10 -28 -10 -39 6 -13 17 -14 17 -23 -1 -6 -11
-23 -18 -43 -19 -31 -2 -32 -1 -14 12 10 8 25 14 33 14 7 0 11 4 8 8 -3 5 -25
6 -48 3 -55 -8 -88 -3 -88 14 0 7 -10 16 -22 20 -23 8 -23 8 2 12 57 9 71 14
64 25 -5 7 3 9 25 6 19 -3 31 0 31 7 0 16 129 82 175 88 23 4 34 3 27 -2 -10
-6 -6 -11 17 -19 25 -9 31 -16 31 -41 0 -24 6 -31 31 -40 56 -19 66 -14 34 19
-28 29 -28 30 -6 30 29 0 73 -50 59 -67 -13 -16 -3 -17 23 -3 25 14 24 28 -2
49 l-21 17 26 13 c22 12 31 12 63 -2 21 -8 56 -18 78 -22 22 -3 48 -8 57 -11
12 -4 15 0 11 14 -7 27 24 32 127 21 47 -5 120 -10 162 -11 82 -2 108 9 108
44 0 16 -3 17 -21 8 -25 -14 -41 -3 -16 11 27 16 22 40 -6 30 -13 -5 -35 -7
-50 -4 -14 3 -41 0 -58 -6 -18 -6 -34 -9 -37 -6 -7 7 19 35 32 34 6 -1 27 5
46 14 44 20 20 21 -44 2 -26 -8 -52 -12 -58 -9 -5 3 -15 0 -23 -6 -11 -9 -15
-9 -15 -1 0 15 -45 4 -85 -21 -17 -10 -49 -18 -74 -18 -38 0 -42 2 -31 15 7 9
11 18 8 20 -9 9 -38 -7 -49 -26 -11 -21 -26 -23 -64 -9 -24 9 -25 12 -14 26
12 15 10 16 -17 10 -31 -7 -84 7 -84 21 0 5 42 23 93 42 77 28 96 39 118 70
36 52 110 94 141 82 22 -9 22 -10 -7 -11 -25 -1 -27 -2 -10 -9 39 -16 105 -22
105 -10 0 7 12 9 36 5 25 -5 43 -2 61 9 31 21 24 30 -10 14 -25 -11 -67 -5
-54 8 4 3 54 14 111 23 58 10 127 28 153 41 26 13 55 22 64 21 9 -2 22 5 29
13 12 14 11 18 -1 26 -8 5 -25 9 -39 9 -22 1 -23 2 -7 11 23 14 22 46 -3 54
-29 9 -25 16 25 48 25 16 45 33 45 38 0 5 8 9 18 9 9 0 24 5 32 11 11 7 3 9
-30 4 -43 -6 -44 -5 -25 10 11 9 27 20 35 25 8 5 12 12 8 15 -4 4 -22 -4 -40
-18 -52 -38 -62 -43 -55 -24 7 20 -4 22 -21 5 -8 -8 -15 -8 -25 0 -7 6 -26 10
-42 9 -17 -1 -30 4 -33 13 -4 12 -3 13 10 3 8 -7 18 -10 22 -6 3 4 14 8 24 10
9 1 32 5 51 9 23 5 36 2 42 -7 13 -22 23 16 9 41 -8 14 -19 20 -38 18 -24 -3
-27 1 -30 28 -3 26 -7 31 -22 27 -12 -3 -22 1 -26 11 -10 26 -24 18 -24 -13 0
-27 -24 -50 -34 -32 -7 11 5 51 15 51 5 0 9 7 9 15 0 8 -9 15 -20 15 -11 0
-20 5 -20 10 0 6 5 10 10 10 6 0 10 14 10 30 0 22 -5 30 -17 30 -12 0 -8 6 13
19 39 24 50 67 22 82 -11 6 -22 8 -26 5 -3 -3 0 -6 6 -6 19 0 13 -14 -15 -34
l-26 -19 5 36 c4 33 2 35 -12 22 -20 -18 -32 -19 -47 -4 -11 11 5 59 20 59 5
0 22 9 38 21 37 26 28 44 -12 24 -16 -9 -29 -11 -29 -6 0 5 -8 11 -17 13 -19
4 68 38 97 38 14 0 25 15 48 63 3 5 -6 3 -19 -4 -13 -7 -30 -12 -37 -11 -7 2
-15 -4 -18 -12 -5 -14 -10 -13 -31 4 -16 13 -41 20 -67 20 -35 0 -46 -5 -64
-30 -13 -16 -30 -30 -40 -29 -12 0 -11 3 6 10 23 9 24 16 5 67 -3 6 2 12 10
12 9 0 19 5 23 12 5 8 2 9 -9 5 -12 -5 -17 -1 -17 12 0 10 -3 32 -6 49 -8 39
10 49 123 67 47 8 91 19 97 26 8 8 5 10 -11 4 -17 -5 -23 -2 -23 10 0 13 -4
13 -27 -4 -16 -10 -52 -22 -82 -25 -63 -6 -60 0 10 25 46 17 78 41 79 62 0 4
-6 7 -13 7 -7 0 -21 14 -30 30 -21 34 -32 37 -46 13 -9 -16 -12 -16 -21 -3 -9
13 -12 13 -24 -2 -19 -25 -26 -22 -26 11 0 35 -37 54 -52 27 -9 -17 -38 -22
-38 -7 0 16 -28 20 -64 9 -28 -9 -35 -16 -31 -29 5 -15 1 -16 -32 -8 -51 12
-59 11 -45 -3 12 -12 17 -48 7 -48 -7 0 -44 31 -64 53 -17 18 -31 22 -31 8 0
-13 62 -71 76 -71 7 0 16 -5 19 -11 7 -11 -13 -69 -24 -69 -11 0 -45 43 -59
74 -7 16 -15 26 -18 23 -3 -3 -1 -14 5 -25 6 -12 11 -35 11 -52 0 -27 -2 -30
-19 -20 -28 15 -51 12 -51 -5 0 -20 -26 -19 -34 0 -3 9 0 34 8 55 14 41 4 54
-22 28 -8 -8 -15 -8 -28 3 -9 7 -26 13 -38 14 -25 0 -34 38 -14 62 7 9 42 29
78 46 36 16 60 31 54 33 -13 5 -166 -63 -175 -78 -4 -6 -13 -8 -20 -6 -14 5
15 38 57 66 10 7 13 10 6 7 -7 -4 -19 -1 -27 5 -12 10 -15 9 -15 -4 0 -9 -5
-16 -12 -16 -6 0 -20 -8 -31 -17 -18 -17 -19 -17 -33 2 -9 13 -11 22 -4 29 5
5 10 18 10 28 0 12 18 27 52 43 47 23 52 23 63 8 11 -15 13 -15 19 5 4 12 20
29 36 37 31 16 51 39 26 29 -11 -4 -16 0 -16 15 0 28 -4 27 -50 -18 -33 -32
-126 -79 -136 -68 -1 1 0 14 3 30 4 21 8 25 18 17 17 -14 122 37 130 62 9 26
-5 45 -17 24 -8 -14 -12 -15 -26 -4 -15 11 -15 11 -4 -4 11 -14 9 -19 -17 -37
-31 -23 -51 -27 -51 -11 0 37 -102 66 -115 32 -12 -32 17 -42 47 -15 10 9 21
13 24 10 11 -11 -6 -76 -19 -73 -7 1 -9 1 -4 -1 11 -7 8 -53 -3 -53 -6 0 -26
16 -46 35 -19 19 -29 35 -23 35 8 0 8 4 -1 15 -7 8 -9 23 -5 36 7 21 5 22 -39
17 -45 -5 -46 -5 -31 13 16 16 16 19 -3 30 -16 10 -19 20 -15 41 6 31 -10 38
-25 11 -8 -14 -11 -11 -16 14 -6 24 -11 30 -27 26 -15 -4 -19 0 -19 21 0 24
-2 25 -21 14 -17 -11 -22 -10 -30 4 -5 9 -15 15 -22 12 -10 -3 -12 5 -9 31 5
40 -9 46 -41 18 -19 -17 -20 -17 -14 0 7 20 3 21 -24 7 -13 -7 -19 -7 -19 0 0
5 -11 10 -24 10 -13 0 -30 10 -39 23 -12 16 -16 18 -16 7 -2 -35 -23 -40 -54
-14 -26 22 -37 25 -71 20 -28 -4 -51 -1 -70 9 -28 15 -32 14 -58 -5 l-28 -21
0 21 c0 19 -4 21 -32 15 -18 -4 -38 -13 -44 -21 -10 -12 -13 -12 -24 1 -9 11
-9 15 -1 15 7 0 9 5 6 10 -11 18 -53 11 -60 -10 -3 -11 -11 -20 -17 -20 -5 0
-12 9 -15 20 -3 11 -10 20 -15 20 -5 0 -12 -9 -15 -20 -3 -11 -9 -20 -13 -20
-11 0 -20 28 -14 44 12 31 -20 28 -47 -5 -28 -33 -29 -34 -35 -11 -7 26 -59
58 -69 42z m-215 -117 c0 -25 -1 -26 -16 -11 -9 9 -13 21 -10 27 13 20 26 11
26 -16z m58 -6 c2 -12 -3 -17 -17 -17 -12 0 -21 6 -21 13 0 31 32 34 38 4z
m57 -17 c3 -5 2 -10 -4 -10 -5 0 -13 5 -16 10 -3 6 -2 10 4 10 5 0 13 -4 16
-10z m-207 -12 c7 -7 12 -18 12 -25 0 -11 -5 -11 -20 -3 -11 6 -20 17 -20 25
0 18 12 19 28 3z m252 -43 c0 -36 -13 -47 -24 -19 -5 14 9 54 19 54 3 0 5 -16
5 -35z m-215 -45 c3 -6 -2 -13 -12 -16 -10 -3 -26 -10 -35 -15 -21 -11 -22 -2
-6 33 10 21 16 24 30 17 9 -5 20 -14 23 -19z m140 -10 c3 -5 1 -10 -4 -10 -6
0 -11 5 -11 10 0 6 2 10 4 10 3 0 8 -4 11 -10z m-337 -29 c3 -8 -1 -12 -9 -9
-7 2 -15 10 -17 17 -3 8 1 12 9 9 7 -2 15 -10 17 -17z m47 9 c3 -5 1 -10 -4
-10 -6 0 -11 5 -11 10 0 6 2 10 4 10 3 0 8 -4 11 -10z m-590 -320 c3 -6 -1 -7
-9 -4 -18 7 -21 14 -7 14 6 0 13 -4 16 -10z m2785 -71 c0 -18 -6 -28 -20 -32
-11 -3 -23 -1 -26 4 -5 9 4 66 13 82 8 14 32 -26 33 -54z m-1545 30 c11 -17
-1 -21 -15 -4 -8 9 -8 15 -2 15 6 0 14 -5 17 -11z m1022 -15 c-3 -3 -12 -4
-19 -1 -8 3 -5 6 6 6 11 1 17 -2 13 -5z m-47 -8 c0 -2 -7 -7 -16 -10 -8 -3
-12 -2 -9 4 6 10 25 14 25 6z m635 -31 c0 -35 -16 -42 -33 -14 -10 16 -11 24
-1 35 18 22 34 11 34 -21z m-2014 8 c13 -16 12 -17 -3 -4 -10 7 -18 15 -18 17
0 8 8 3 21 -13z m2075 -22 c-4 -6 -16 -16 -27 -22 -20 -10 -20 -10 -4 21 12
22 20 29 27 22 6 -6 7 -15 4 -21z m-1842 4 c-6 -16 -24 -21 -24 -7 0 11 11 22
21 22 5 0 6 -7 3 -15z m1211 -16 c-21 -11 -40 -18 -41 -16 -6 6 12 23 36 34
41 18 46 2 5 -18z m418 -11 c-2 -48 -2 -48 -12 -48 -5 0 -7 15 -6 33 4 46 4
47 13 47 4 0 6 -15 5 -32z m-1723 -16 c0 -15 -2 -15 -10 -2 -13 20 -13 33 0
25 6 -3 10 -14 10 -23z m710 24 c0 -3 -4 -8 -10 -11 -5 -3 -10 -1 -10 4 0 6 5
11 10 11 6 0 10 -2 10 -4z m350 0 c0 -3 -4 -8 -10 -11 -5 -3 -10 -1 -10 4 0 6
5 11 10 11 6 0 10 -2 10 -4z m705 -45 c-4 -18 -13 -31 -21 -31 -16 0 -11 33 9
58 15 19 20 8 12 -27z m-1598 7 c-3 -8 -6 -5 -6 6 -1 11 2 17 5 13 3 -3 4 -12
1 -19z m1630 -10 c-3 -8 -6 -5 -6 6 -1 11 2 17 5 13 3 -3 4 -12 1 -19z m-1572
2 c3 -5 1 -10 -4 -10 -6 0 -11 5 -11 10 0 6 2 10 4 10 3 0 8 -4 11 -10z m732
-48 c-9 -8 -23 -12 -32 -8 -21 8 -10 26 16 26 11 0 19 7 20 18 1 15 2 15 6 -2
3 -10 -2 -25 -10 -34z m734 18 c6 -16 17 -30 25 -30 21 0 16 -13 -11 -33 -24
-17 -25 -17 -25 2 0 10 -4 21 -9 23 -5 2 -12 18 -16 36 -5 26 -3 32 10 32 9 0
21 -13 26 -30z m-681 4 c0 -8 -4 -12 -10 -9 -5 3 -10 10 -10 16 0 5 5 9 10 9
6 0 10 -7 10 -16z m865 -4 c-3 -5 -14 -10 -23 -10 -15 0 -15 2 -2 10 20 13 33
13 25 0z m-1688 -26 c8 -22 -15 -43 -27 -24 -5 8 -10 21 -10 28 0 17 30 15 37
-4z m-97 -4 c0 -5 -4 -10 -10 -10 -5 0 -10 5 -10 10 0 6 5 10 10 10 6 0 10 -4
10 -10z m1020 -12 c0 -25 -34 -48 -72 -48 -44 0 -51 19 -16 42 27 18 88 22 88
6z m770 -13 c0 -8 -4 -15 -10 -15 -5 0 -7 7 -4 15 4 8 8 15 10 15 2 0 4 -7 4
-15z m-1422 -25 c14 -23 5 -26 -20 -6 -21 16 -23 26 -5 26 7 0 18 -9 25 -20z
m467 0 c-40 -27 -68 -26 -36 0 13 11 33 20 45 20 19 0 18 -2 -9 -20z m840 1
c-3 -6 -11 -11 -17 -11 -6 0 -6 6 2 15 14 17 26 13 15 -4z m55 -6 c-7 -8 -17
-15 -23 -15 -5 0 -2 9 8 20 21 23 35 19 15 -5z m-160 5 c0 -5 -7 -10 -15 -10
-8 0 -15 5 -15 10 0 6 7 10 15 10 8 0 15 -4 15 -10z m221 -43 c-16 -16 -26 0
-10 19 9 11 15 12 17 4 2 -6 -1 -17 -7 -23z m-2171 3 c0 -11 -7 -20 -15 -20
-8 0 -15 9 -15 20 0 11 7 20 15 20 8 0 15 -9 15 -20z m-140 -30 c0 -5 -2 -10
-4 -10 -3 0 -8 5 -11 10 -3 6 -1 10 4 10 6 0 11 -4 11 -10z m197 -6 c3 -8 12
-13 19 -10 23 9 16 -11 -15 -46 -16 -18 -33 -29 -38 -25 -4 5 -1 14 8 21 15
10 15 14 3 31 -8 10 -14 25 -14 32 0 18 29 16 37 -3z m1306 -2 c-10 -11 -27
-22 -38 -26 -14 -5 -11 1 10 18 35 29 54 34 28 8z m733 9 c-3 -5 -15 -11 -26
-14 -17 -4 -19 -3 -9 9 12 15 44 20 35 5z m-1716 -27 c0 -8 -4 -12 -10 -9 -5
3 -10 13 -10 21 0 8 5 12 10 9 6 -3 10 -13 10 -21z m1790 18 c0 -5 -11 -19
-26 -33 -22 -21 -24 -21 -18 -4 13 36 44 62 44 37z m-2265 -12 c3 -5 1 -10 -4
-10 -6 0 -11 5 -11 10 0 6 2 10 4 10 3 0 8 -4 11 -10z m83 -9 c3 -8 -1 -12 -9
-9 -7 2 -15 10 -17 17 -3 8 1 12 9 9 7 -2 15 -10 17 -17z m538 2 c3 -10 10
-25 15 -33 27 -45 39 -71 30 -66 -13 9 -71 94 -71 107 0 16 20 10 26 -8z m894
-3 c0 -5 -5 -10 -11 -10 -5 0 -7 5 -4 10 3 6 8 10 11 10 2 0 4 -4 4 -10z
m-1201 -55 c-12 -43 -29 -69 -29 -44 0 8 5 20 12 27 9 9 8 15 -8 26 -19 15
-19 15 1 30 28 21 36 7 24 -39z m1401 35 c0 -5 -5 -10 -11 -10 -5 0 -7 5 -4
10 3 6 8 10 11 10 2 0 4 -4 4 -10z m725 -1 c-4 -6 -14 -8 -22 -5 -9 4 -22 1
-30 -5 -15 -13 -28 -6 -18 10 3 6 22 11 41 11 22 0 33 -4 29 -11z m-1861 -20
c-3 -5 -10 -7 -15 -3 -5 3 -7 10 -3 15 3 5 10 7 15 3 5 -3 7 -10 3 -15z m896
7 c0 -15 -50 -69 -58 -61 -3 3 2 13 11 23 10 10 17 23 17 29 0 9 9 16 28 22 1
1 2 -5 2 -13z m200 4 c0 -5 -5 -10 -11 -10 -5 0 -7 5 -4 10 3 6 8 10 11 10 2
0 4 -4 4 -10z m-1190 -29 c0 -5 -7 -14 -16 -22 -13 -10 -17 -10 -25 2 -10 17
-12 33 -3 42 8 8 44 -10 44 -22z m-1423 -17 c-9 -9 -28 6 -21 18 4 6 10 6 17
-1 6 -6 8 -13 4 -17z m1007 11 c3 -8 1 -15 -4 -15 -6 0 -10 7 -10 15 0 8 2 15
4 15 2 0 6 -7 10 -15z m1637 -38 c-17 -17 -22 -3 -8 26 11 25 12 25 15 6 2
-12 -1 -26 -7 -32z m-1454 17 c-9 -9 -28 6 -21 18 4 6 10 6 17 -1 6 -6 8 -13
4 -17z m344 9 c32 -19 50 -49 23 -39 -10 4 -22 -1 -31 -11 -13 -17 -14 -16 -8
5 7 25 -7 29 -25 7 -7 -8 -17 -15 -23 -15 -7 0 -7 4 1 12 7 7 12 22 12 35 0
27 12 29 51 6z m-410 -3 c22 -13 25 -30 4 -30 -7 0 -18 -8 -24 -17 -8 -14 -12
-15 -25 -4 -16 14 -21 42 -9 54 9 10 31 9 54 -3z m2187 -9 c3 -9 0 -11 -8 -6
-7 4 -16 2 -20 -5 -8 -13 -94 -22 -125 -13 -14 5 0 12 50 24 79 20 96 20 103
0z m-3208 -1 c0 -5 -4 -10 -10 -10 -5 0 -10 5 -10 10 0 6 5 10 10 10 6 0 10
-4 10 -10z m490 -12 c0 -13 -23 -5 -28 10 -2 7 2 10 12 6 9 -3 16 -11 16 -16z
m767 0 c-3 -8 -6 -5 -6 6 -1 11 2 17 5 13 3 -3 4 -12 1 -19z m-157 -38 c16
-39 9 -64 -18 -68 -12 -2 -22 -8 -22 -14 0 -6 -6 -6 -15 2 -8 7 -15 24 -15 37
0 20 -4 24 -17 18 -10 -3 -3 9 16 29 37 39 54 38 71 -4z m1938 13 c-10 -2 -26
-2 -35 0 -10 3 -2 5 17 5 19 0 27 -2 18 -5z m-3088 -12 c0 -5 -7 -11 -15 -15
-9 -3 -15 0 -15 9 0 8 7 15 15 15 8 0 15 -4 15 -9z m2510 -6 c-7 -9 -15 -13
-17 -11 -7 7 7 26 19 26 6 0 6 -6 -2 -15z m80 0 c-14 -17 -40 -20 -40 -6 0 8
18 16 44 20 5 0 3 -6 -4 -14z m80 5 c0 -5 -5 -10 -11 -10 -5 0 -7 5 -4 10 3 6
8 10 11 10 2 0 4 -4 4 -10z m614 -3 c-2 -7 -18 -21 -33 -30 -26 -15 -29 -15
-35 -1 -12 32 -9 34 61 43 7 0 10 -5 7 -12z m-1834 -17 c15 -27 -5 -67 -25
-50 -10 8 -11 17 -2 40 13 36 13 35 27 10z m-1395 -6 c25 -16 34 -44 14 -44
-5 0 -7 4 -4 10 3 5 -5 15 -19 22 -14 6 -26 15 -26 20 0 12 8 10 35 -8z m1685
6 c0 -5 -2 -10 -4 -10 -3 0 -8 5 -11 10 -3 6 -1 10 4 10 6 0 11 -4 11 -10z
m-460 -37 c0 -22 -2 -25 -10 -13 -13 20 -13 40 0 40 6 0 10 -12 10 -27z m120
17 c0 -5 -5 -10 -11 -10 -5 0 -7 5 -4 10 3 6 8 10 11 10 2 0 4 -4 4 -10z
m1030 0 c0 -5 -4 -10 -10 -10 -5 0 -10 5 -10 10 0 6 5 10 10 10 6 0 10 -4 10
-10z m190 6 c0 -2 -7 -7 -16 -10 -8 -3 -12 -2 -9 4 6 10 25 14 25 6z m-1404
-23 c17 -23 17 -33 1 -33 -22 0 -51 26 -43 38 10 17 27 15 42 -5z m1494 7 c0
-5 -11 -10 -24 -10 -14 0 -28 5 -31 10 -4 6 7 10 24 10 17 0 31 -4 31 -10z
m47 4 c-3 -3 -12 -4 -19 -1 -8 3 -5 6 6 6 11 1 17 -2 13 -5z m-762 -14 c-3 -5
-15 -10 -25 -10 -10 0 -21 -6 -23 -12 -4 -8 -6 -7 -6 4 -1 17 12 26 42 27 10
1 15 -3 12 -9z m-1571 -6 c22 -9 20 -34 -3 -34 -17 0 -51 24 -51 36 0 6 36 5
54 -2z m526 -76 c0 -18 -25 -2 -47 32 -34 49 -28 58 12 16 19 -21 35 -42 35
-48z m1540 72 c0 -5 -5 -10 -11 -10 -5 0 -7 5 -4 10 3 6 8 10 11 10 2 0 4 -4
4 -10z m-2510 -10 c23 -14 3 -24 -25 -12 -14 6 -32 9 -42 5 -11 -4 -14 -3 -9
5 9 14 55 16 76 2z m1520 0 c0 -5 -4 -10 -9 -10 -6 0 -13 5 -16 10 -3 6 1 10
9 10 9 0 16 -4 16 -10z m105 -8 c0 -18 -20 -15 -23 4 -3 10 1 15 10 12 7 -3
13 -10 13 -16z m1010 -24 c-10 -35 -17 -44 -39 -46 -21 -3 -26 1 -26 17 0 12
-5 21 -12 21 -23 0 19 32 53 40 19 4 35 8 35 9 1 1 -4 -18 -11 -41z m-1235 17
c0 -8 -4 -15 -10 -15 -5 0 -10 7 -10 15 0 8 5 15 10 15 6 0 10 -7 10 -15z
m1312 -35 c-20 -22 -40 -40 -43 -40 -3 0 -6 17 -5 38 1 37 5 40 38 27 12 -5
20 -1 24 9 3 9 10 13 15 11 5 -3 -8 -24 -29 -45z m-2101 23 c13 -15 12 -15
-11 -3 -34 17 -36 20 -18 20 9 0 22 -7 29 -17z m-741 -3 c0 -5 -4 -10 -10 -10
-5 0 -10 5 -10 10 0 6 5 10 10 10 6 0 10 -4 10 -10z m241 -20 c14 -11 18 -19
11 -20 -15 0 -72 28 -72 35 0 13 40 3 61 -15z m1133 14 c13 -5 14 -9 5 -20 -9
-11 -6 -14 15 -14 15 0 28 -6 30 -12 23 -84 39 -228 25 -228 -12 0 -18 43 -8
61 5 10 9 20 9 22 0 3 -32 24 -71 47 -58 34 -70 46 -66 62 6 22 -11 68 -25 68
-4 0 -8 -8 -8 -17 0 -15 -2 -16 -10 -3 -5 9 -5 19 2 27 11 13 74 18 102 7z
m-1203 -20 c49 -15 97 -37 124 -57 51 -39 51 -39 31 -33 -10 4 -49 14 -85 22
-40 10 -73 25 -85 38 -10 11 -30 26 -45 33 -39 17 -3 15 60 -3z m551 -12 c18
-15 51 -35 73 -44 90 -36 94 -39 40 -33 -27 3 -77 11 -110 18 -50 11 -60 17
-65 38 -5 18 -13 24 -36 25 -46 2 -50 4 -34 14 8 5 34 10 57 10 32 0 50 -7 75
-28z m75 22 c-3 -3 -12 -4 -19 -1 -8 3 -5 6 6 6 11 1 17 -2 13 -5z m983 -4 c0
-5 -5 -10 -11 -10 -5 0 -7 5 -4 10 3 6 8 10 11 10 2 0 4 -4 4 -10z m800 -5
c-7 -9 -15 -13 -17 -11 -7 7 7 26 19 26 6 0 6 -6 -2 -15z m425 -14 c-3 -6 -11
-11 -17 -11 -6 0 -6 6 2 15 14 17 26 13 15 -4z m-2870 -13 c7 -7 -4 -9 -39 -4
-27 3 -61 6 -75 6 -21 0 -23 2 -11 11 18 12 111 2 125 -13z m2397 0 c-7 -7
-12 -8 -12 -2 0 14 12 26 19 19 2 -3 -1 -11 -7 -17z m-1895 -14 c-9 -9 -28 6
-21 18 4 6 10 6 17 -1 6 -6 8 -13 4 -17z m273 4 c0 -6 -6 -5 -15 2 -8 7 -15
14 -15 16 0 2 7 1 15 -2 8 -4 15 -11 15 -16z m748 -1 c2 -10 -3 -17 -11 -17
-18 0 -39 24 -30 34 12 12 38 2 41 -17z m-788 -12 c10 -11 11 -15 2 -15 -18 0
-82 28 -82 36 0 11 64 -6 80 -21z m620 12 c0 -7 22 -33 49 -59 55 -53 55 -73
-2 -57 -32 8 -38 15 -47 52 -6 23 -13 50 -16 60 -3 9 -1 17 5 17 6 0 11 -6 11
-13z m350 -38 c0 -12 -7 -19 -20 -19 -26 0 -36 25 -20 45 16 19 40 2 40 -26z
m990 22 c0 -21 -13 -41 -26 -41 -17 0 -17 5 -4 31 11 20 30 26 30 10z m310
-11 c-19 -12 -40 -13 -40 -1 0 9 40 20 50 13 2 -2 -2 -7 -10 -12z m50 0 c-12
-22 -1 -27 18 -8 6 6 14 9 18 6 3 -4 -4 -12 -16 -18 -29 -15 -49 2 -30 25 18
21 23 19 10 -5z m130 10 c0 -5 -8 -10 -18 -10 -10 0 -25 -11 -32 -25 -9 -17
-22 -25 -39 -25 l-25 0 24 17 c14 9 31 25 38 35 14 19 52 25 52 8z m-2730 -20
c12 -12 34 -20 58 -21 20 -1 48 -4 61 -8 21 -5 17 -8 -27 -20 -28 -7 -56 -10
-62 -6 -20 13 -9 -14 12 -29 27 -19 42 -21 32 -3 -5 8 -2 7 10 -2 15 -13 18
-12 23 7 4 18 13 22 44 22 37 0 38 -1 29 -25 -5 -14 -7 -32 -3 -40 6 -18 -24
-51 -62 -65 -17 -7 -25 -6 -25 1 0 8 -4 8 -13 1 -7 -6 -44 -12 -82 -13 l-70
-3 -3 72 -3 72 33 1 33 1 -34 8 c-19 5 -40 6 -48 3 -23 -9 -14 14 12 31 16 11
35 14 52 10 27 -6 27 -6 8 9 -11 9 -15 17 -7 17 6 0 21 -9 32 -20z m2177 -5
c-4 -8 -14 -15 -23 -15 -16 0 -16 2 1 20 20 22 31 20 22 -5z m-2277 5 c0 -5
-2 -10 -4 -10 -3 0 -8 5 -11 10 -3 6 -1 10 4 10 6 0 11 -4 11 -10z m157 4 c-3
-3 -12 -4 -19 -1 -8 3 -5 6 6 6 11 1 17 -2 13 -5z m978 -4 c3 -5 1 -10 -4 -10
-6 0 -11 5 -11 10 0 6 2 10 4 10 3 0 8 -4 11 -10z m105 -11 c0 -5 -4 -9 -10
-9 -5 0 -10 7 -10 16 0 8 5 12 10 9 6 -3 10 -10 10 -16z m934 -12 c-4 -13 -9
-14 -19 -4 -9 9 -10 16 -2 25 13 16 30 1 21 -21z m-2253 13 c30 -17 24 -42 -8
-38 -20 2 -29 9 -31 26 -4 24 9 28 39 12z m885 -21 c19 -11 34 -27 34 -35 0
-21 -17 -17 -35 9 -8 12 -21 22 -27 22 -6 0 -13 6 -15 13 -6 17 5 15 43 -9z
m384 -25 c0 -28 -19 -24 -39 8 -11 17 -11 22 0 29 18 11 39 -9 39 -37z m1465
36 c-3 -5 -13 -10 -21 -10 -8 0 -12 5 -9 10 3 6 13 10 21 10 8 0 12 -4 9 -10z
m-610 -19 c-3 -6 -16 -11 -28 -11 -21 1 -21 1 3 15 27 14 36 13 25 -4z m65 9
c0 -5 -7 -10 -15 -10 -8 0 -15 5 -15 10 0 6 7 10 15 10 8 0 15 -4 15 -10z
m486 -17 c-10 -10 -19 5 -10 18 6 11 8 11 12 0 2 -7 1 -15 -2 -18z m-2266 7
c8 -5 11 -10 5 -10 -5 0 -17 5 -25 10 -8 5 -10 10 -5 10 6 0 17 -5 25 -10z
m980 7 c0 -2 -10 -12 -21 -23 -22 -19 -22 -19 -10 4 10 18 31 31 31 19z m-641
-45 c14 -11 14 -12 -4 -10 -13 2 -21 12 -22 28 -2 15 0 19 4 10 3 -8 13 -21
22 -28z m1888 0 c-10 -2 -15 -7 -12 -11 7 -12 -32 -44 -45 -36 -6 4 -10 14 -8
23 1 10 -1 23 -5 30 -6 8 -2 12 12 12 12 0 21 5 21 10 0 6 12 3 27 -7 22 -15
24 -19 10 -21z m-2799 5 c5 -24 -15 -21 -28 4 -10 18 -9 20 7 17 10 -2 19 -11
21 -21z m2310 -16 c-16 -19 -33 -28 -53 -28 -26 0 -27 2 -11 11 10 6 30 21 44
33 33 30 48 18 20 -16z m380 -23 c-13 -10 -31 -18 -41 -18 -26 0 -18 32 11 45
13 6 20 16 17 25 -3 8 4 4 16 -9 l20 -25 -23 -18z m-2465 9 c20 -48 22 -77 6
-77 -6 0 -9 -7 -5 -15 3 -8 2 -15 -3 -15 -5 0 -14 7 -21 15 -7 8 -21 15 -31
15 -10 0 -20 4 -24 10 -3 5 -12 7 -20 4 -9 -4 -18 1 -22 11 -4 13 5 29 35 57
23 21 47 38 54 38 7 0 21 -19 31 -43z m735 18 c-2 -15 4 -29 16 -38 10 -8 17
-19 15 -26 -3 -9 -11 -8 -28 6 -19 16 -22 25 -16 51 8 38 18 43 13 7z m2282
15 c11 -7 6 -10 -20 -10 -26 0 -31 3 -20 10 8 5 17 10 20 10 3 0 12 -5 20 -10z
m-1081 -19 c11 -7 9 -11 -9 -21 -25 -13 -35 -8 -27 15 7 17 16 19 36 6z m861
5 c0 -3 -4 -8 -10 -11 -5 -3 -10 -1 -10 4 0 6 5 11 10 11 6 0 10 -2 10 -4z
m-458 -28 c-6 -6 -15 -8 -19 -4 -4 4 -1 11 7 16 19 12 27 3 12 -12z m606 2 c4
-13 3 -13 -11 -2 -13 12 -16 10 -19 -15 -3 -25 -6 -28 -39 -26 -29 2 -36 -1
-35 -15 1 -13 -12 -18 -58 -24 -60 -8 -83 -4 -52 8 9 3 31 20 49 37 17 16 46
36 62 43 38 17 97 14 103 -6z m-3198 1 c0 -6 -4 -13 -10 -16 -5 -3 -10 1 -10
9 0 9 5 16 10 16 6 0 10 -4 10 -9z m40 -17 c0 -31 -23 -28 -28 4 -2 15 2 22
12 22 11 0 16 -9 16 -26z m664 8 c-1 -7 -2 -28 -2 -47 -2 -31 -5 -35 -28 -35
-18 0 -38 -13 -63 -39 -34 -38 -124 -91 -152 -91 -21 0 -60 91 -47 107 12 15
44 17 53 3 3 -5 18 -10 33 -10 19 0 23 3 14 9 -21 13 83 99 133 110 47 10 60
9 59 -7z m607 -5 c-10 -9 -11 -8 -5 6 3 10 9 15 12 12 3 -3 0 -11 -7 -18z
m554 -27 c4 0 5 9 2 20 -6 22 -5 23 17 14 16 -6 23 -44 7 -44 -4 0 -12 -15
-17 -32 -7 -23 -16 -33 -29 -33 -17 0 -20 8 -23 60 l-2 60 19 -22 c11 -13 22
-23 26 -23z m-1899 -14 c6 -26 5 -27 -15 -17 -20 11 -28 41 -14 55 10 9 21 -5
29 -38z m1708 28 c9 -24 7 -87 -4 -104 -7 -11 -10 -8 -10 16 0 17 -9 43 -20
57 -19 24 -20 26 -3 36 25 14 30 14 37 -5z m1073 10 c-3 -3 -12 -4 -19 -1 -8
3 -5 6 6 6 11 1 17 -2 13 -5z m653 -14 c0 -19 -20 -27 -33 -13 -8 7 11 33 24
33 5 0 9 -9 9 -20z m-3323 -15 c-4 -8 -11 -15 -17 -15 -7 0 -7 6 0 21 13 23
26 19 17 -6z m1920 3 c-3 -8 -6 -5 -6 6 -1 11 2 17 5 13 3 -3 4 -12 1 -19z
m863 2 c-34 -27 -54 -27 -40 0 7 13 21 20 38 20 l27 0 -25 -20z m131 0 c-13
-11 -31 -20 -40 -20 -9 0 -22 -5 -29 -12 -9 -9 -13 -7 -18 6 -9 25 4 34 56 39
25 2 47 4 50 5 3 1 -6 -8 -19 -18z m330 6 c0 -5 -13 -11 -28 -12 -27 -3 -27
-2 -8 12 20 15 37 15 36 0z m-2196 -6 c3 -6 -1 -7 -9 -4 -18 7 -21 14 -7 14 6
0 13 -4 16 -10z m1147 -12 c-6 -6 -16 -7 -22 -3 -9 6 -9 9 1 16 17 10 34 0 21
-13z m-882 3 c0 -12 -25 -21 -57 -21 -21 0 -24 2 -13 15 13 16 70 21 70 6z
m760 -1 c0 -5 -4 -10 -10 -10 -5 0 -10 5 -10 10 0 6 5 10 10 10 6 0 10 -4 10
-10z m600 -16 c0 -8 -4 -14 -9 -14 -5 0 -16 -3 -25 -6 -22 -9 -21 22 1 35 21
11 33 6 33 -15z m-2730 0 c0 -17 -22 -14 -28 4 -2 7 3 12 12 12 9 0 16 -7 16
-16z m2080 1 c-7 -8 -19 -15 -27 -15 -13 0 -13 3 -3 15 7 8 19 15 27 15 13 0
13 -3 3 -15z m583 9 c3 -3 -4 -16 -16 -28 -12 -11 -23 -33 -24 -49 0 -15 -6
-34 -13 -42 -13 -15 -110 -40 -131 -33 -25 8 28 46 75 53 26 4 49 12 53 18 4
7 -8 8 -35 4 -23 -3 -42 -2 -42 3 0 4 18 24 40 44 36 33 77 46 93 30z m-1603
-25 c0 -5 -7 -9 -15 -9 -15 0 -20 12 -9 23 8 8 24 -1 24 -14z m545 1 c10 -11
15 -20 11 -20 -10 0 -66 30 -66 35 0 13 39 2 55 -15z m834 -14 c-7 -14 -20
-24 -33 -24 -11 0 -32 -3 -45 -7 -18 -6 -23 -5 -19 6 2 7 21 18 41 22 20 5 37
13 37 18 0 5 7 9 15 9 12 0 12 -5 4 -24z m-2539 4 c0 -5 -9 -10 -19 -10 -11 0
-23 5 -26 10 -4 6 5 10 19 10 14 0 26 -4 26 -10z m925 -42 c19 -29 35 -58 35
-65 0 -7 -18 -13 -42 -15 l-43 -3 45 -16 c32 -11 46 -22 48 -37 3 -16 -1 -20
-12 -16 -9 3 -16 1 -16 -5 0 -8 -5 -9 -19 -1 -25 13 -61 13 -61 0 0 -10 -39
-33 -77 -44 -16 -5 -23 -2 -28 15 -6 17 -9 19 -16 8 -7 -11 -12 -9 -25 9 -9
13 -22 21 -29 18 -8 -3 -15 3 -17 14 -3 15 -7 14 -31 -12 l-27 -31 43 5 c36 4
45 1 60 -19 18 -23 18 -23 -8 -33 -43 -16 -53 -12 -110 47 -56 59 -65 73 -42
73 6 0 37 12 67 27 30 14 60 25 67 24 6 -1 14 6 17 16 6 19 23 31 95 69 67 36
85 32 126 -28z m355 20 c0 -6 -7 -5 -15 2 -8 7 -15 17 -15 22 0 6 7 5 15 -2 8
-7 15 -17 15 -22z m995 12 c-10 -11 -25 -20 -33 -20 -12 0 -12 4 3 20 10 11
25 20 33 20 12 0 12 -4 -3 -20z m-827 -15 c-9 -10 -61 -8 -65 2 -5 13 60 23
66 10 1 -5 1 -10 -1 -12z m240 3 c6 -6 12 -24 12 -41 l0 -30 -32 25 c-18 14
-34 35 -36 48 -3 19 0 21 20 15 13 -4 29 -12 36 -17z m522 2 c-6 -11 -20 -20
-31 -20 -21 0 -20 1 2 20 31 25 42 25 29 0z m210 0 c-11 -20 -30 -28 -30 -12
0 11 22 32 32 32 5 0 4 -9 -2 -20z m-2282 -25 c3 -22 0 -26 -15 -22 -101 30
-104 30 -135 1 -16 -16 -39 -29 -51 -29 -13 -1 -28 -4 -34 -8 -7 -5 -14 8 -18
34 -4 25 -3 44 3 48 6 3 63 5 129 5 l118 -2 3 -27z m74 29 c12 -11 -5 -44 -23
-44 -19 0 -27 29 -12 43 8 8 28 9 35 1z m263 -4 c-3 -5 -13 -10 -21 -10 -8 0
-12 5 -9 10 3 6 13 10 21 10 8 0 12 -4 9 -10z m2496 -12 c-10 -27 -46 -36 -54
-14 -5 11 0 16 13 16 10 0 22 5 25 10 12 19 24 10 16 -12z m172 15 c-7 -2 -19
-2 -25 0 -7 3 -2 5 12 5 14 0 19 -2 13 -5z m-2883 -37 c-13 -13 -35 7 -25 24
5 8 11 8 21 -1 10 -8 12 -15 4 -23z m1260 -2 c0 -16 -26 -19 -35 -4 -4 6 -4
18 -1 27 5 12 9 13 21 3 8 -7 15 -19 15 -26z m610 26 c0 -5 -4 -10 -9 -10 -6
0 -13 5 -16 10 -3 6 1 10 9 10 9 0 16 -4 16 -10z m217 -6 c-3 -3 -12 -4 -19
-1 -8 3 -5 6 6 6 11 1 17 -2 13 -5z m-1897 -30 c13 -5 13 -6 0 -15 -12 -9 -10
-10 7 -6 34 8 39 -11 6 -24 -19 -7 -29 -7 -31 0 -2 6 -11 11 -20 11 -16 0 -62
37 -62 51 0 6 56 -4 100 -17z m653 6 c30 -24 44 -74 27 -95 -26 -31 -48 -9
-71 69 -14 49 2 59 44 26z m301 -1 c22 -18 27 -18 32 -5 5 13 10 12 34 -6 20
-14 36 -19 53 -14 20 5 33 -1 63 -29 35 -34 36 -35 20 -60 -9 -13 -16 -37 -16
-52 0 -69 -51 -173 -85 -173 -23 0 -65 46 -65 71 0 18 -8 28 -29 36 -23 8 -30
18 -36 52 -4 27 -3 47 5 55 6 8 7 17 2 20 -14 8 -35 93 -29 111 8 20 19 19 51
-6z m1100 7 c-8 -20 -30 -27 -56 -16 -22 8 -22 9 5 9 15 1 27 6 27 11 0 6 7
10 15 10 8 0 12 -6 9 -14z m622 7 c-4 -4 -31 -10 -59 -13 -34 -3 -51 -10 -49
-18 1 -6 -5 -12 -13 -12 -19 0 -19 9 2 32 12 13 31 18 71 18 31 0 52 -3 48 -7z
m-1022 -29 c-15 -8 -30 -12 -33 -8 -10 9 30 33 45 27 11 -4 7 -9 -12 -19z
m131 16 c-3 -5 -10 -10 -16 -10 -5 0 -9 5 -9 10 0 6 7 10 16 10 8 0 12 -4 9
-10z m1320 -4 c-22 -15 -85 -31 -85 -21 0 18 30 34 65 35 36 0 38 -1 20 -14z
m-3407 -21 c64 -14 107 -39 96 -57 -4 -6 -22 -8 -41 -6 -30 4 -34 1 -31 -16 2
-17 10 -21 40 -21 43 -1 61 -14 56 -41 -5 -31 -31 -27 -72 10 -20 19 -47 38
-59 42 -12 3 -44 17 -72 29 -27 13 -58 26 -67 29 -10 3 -18 10 -18 16 0 16 62
41 85 34 11 -2 49 -11 83 -19z m2732 4 c0 -5 -9 -9 -20 -9 -22 0 -27 16 -7 23
15 5 27 -1 27 -14z m-1632 -1 c19 -19 14 -28 -13 -28 -27 0 -28 1 -19 24 7 19
16 20 32 4z m1943 -3 c-1 -15 -24 -12 -29 3 -3 9 2 13 12 10 10 -1 17 -7 17
-13z m49 5 c0 -5 -4 -10 -10 -10 -5 0 -10 5 -10 10 0 6 5 10 10 10 6 0 10 -4
10 -10z m-3665 -10 c3 -5 -1 -10 -9 -10 -9 0 -16 5 -16 10 0 6 4 10 9 10 6 0
13 -4 16 -10z m2915 -15 c0 -17 -20 -24 -53 -18 -16 3 -27 12 -27 22 0 13 8
16 40 13 24 -3 40 -9 40 -17z m41 -2 c-12 -20 -14 -14 -5 12 4 9 9 14 11 11 3
-2 0 -13 -6 -23z m-375 -20 c-10 -10 -19 5 -10 18 6 11 8 11 12 0 2 -7 1 -15
-2 -18z m979 17 c-10 -17 -45 -32 -45 -20 0 6 10 15 23 20 29 12 29 12 22 0z
m181 -5 c-11 -8 -14 -15 -7 -15 7 0 9 -5 5 -11 -5 -8 -9 -8 -14 1 -6 9 -12 9
-30 0 -12 -6 -24 -9 -27 -7 -5 6 66 46 82 46 6 0 1 -6 -9 -14z m-3491 -15 c0
-7 -6 -15 -12 -17 -8 -3 -13 4 -13 17 0 13 5 20 13 18 6 -3 12 -11 12 -18z
m479 -2 c-1 -10 5 -14 16 -11 10 3 37 -5 61 -18 24 -12 44 -21 44 -20 0 2 17
0 38 -4 30 -6 36 -11 32 -25 -4 -14 -1 -17 12 -14 17 5 82 -50 72 -60 -2 -3
-25 5 -49 16 -25 11 -55 20 -67 19 -18 0 -23 5 -23 24 0 35 -13 38 -81 21 -33
-9 -63 -16 -65 -16 -2 0 -4 11 -4 24 0 14 -4 36 -9 49 -6 14 -7 28 -3 31 10
11 27 0 26 -16z m1632 -5 c-10 -10 -19 5 -10 18 6 11 8 11 12 0 2 -7 1 -15 -2
-18z m114 7 c0 -11 -4 -20 -9 -20 -5 0 -11 -7 -13 -17 -3 -14 -5 -14 -15 -1
-10 11 -9 19 3 36 19 27 34 28 34 2z m930 16 c0 -9 -30 -14 -35 -6 -4 6 3 10
14 10 12 0 21 -2 21 -4z m90 -6 c0 -5 -19 -18 -42 -28 -41 -18 -82 -50 -89
-70 -6 -12 -93 -70 -125 -82 -21 -8 -32 -7 -50 5 -28 18 -31 37 -8 56 15 12
16 11 10 -9 -9 -28 -1 -28 41 1 20 13 33 30 33 44 0 18 10 24 58 37 31 9 77
25 102 35 52 22 70 25 70 11z m-740 -10 c0 -13 -28 -25 -38 -16 -3 4 0 11 8
16 20 13 30 12 30 0z m905 0 c-3 -5 -11 -10 -16 -10 -6 0 -7 5 -4 10 3 6 11
10 16 10 6 0 7 -4 4 -10z m-3246 -6 c39 -8 43 -39 5 -48 -40 -10 -94 3 -94 23
0 32 22 38 89 25z m1281 -4 c0 -5 -7 -10 -16 -10 -8 0 -12 5 -9 10 3 6 10 10
16 10 5 0 9 -4 9 -10z m1635 1 c-6 -5 -23 -12 -40 -16 -29 -6 -29 -6 -11 9 21
17 67 23 51 7z m255 -7 c0 -8 -5 -12 -10 -9 -6 4 -8 11 -5 16 9 14 15 11 15
-7z m-1400 -4 c0 -5 -4 -10 -10 -10 -5 0 -10 5 -10 10 0 6 5 10 10 10 6 0 10
-4 10 -10z m925 0 c-3 -5 -10 -10 -16 -10 -5 0 -9 5 -9 10 0 6 7 10 16 10 8 0
12 -4 9 -10z m75 2 c0 -5 -12 -14 -27 -21 l-28 -11 24 20 c26 22 31 24 31 12z
m445 -12 c-3 -5 -11 -10 -16 -10 -6 0 -7 5 -4 10 3 6 11 10 16 10 6 0 7 -4 4
-10z m145 6 c0 -3 -4 -8 -10 -11 -5 -3 -10 -1 -10 4 0 6 5 11 10 11 6 0 10 -2
10 -4z m-722 -22 c12 -4 22 -10 22 -15 0 -15 -57 -10 -70 6 -10 12 -9 15 6 15
11 0 29 -3 42 -6z m782 -9 c-27 -14 -36 -13 -25 4 3 6 16 11 28 11 21 -1 21
-1 -3 -15z m-400 -5 c0 -5 -5 -10 -11 -10 -5 0 -7 5 -4 10 3 6 8 10 11 10 2 0
4 -4 4 -10z m-3122 -22 c2 -11 -3 -18 -13 -18 -12 0 -15 -6 -10 -20 4 -12 2
-20 -5 -20 -6 0 -13 8 -16 18 -3 9 -9 24 -14 33 -11 22 -2 31 30 27 14 -2 26
-10 28 -20z m2917 13 c-6 -5 -26 -12 -45 -15 l-35 -6 30 15 c34 16 64 20 50 6z
m675 -1 c0 -5 -4 -10 -9 -10 -6 0 -13 5 -16 10 -3 6 1 10 9 10 9 0 16 -4 16
-10z m-3325 -37 c38 -30 44 -39 29 -42 -10 -2 -23 -10 -29 -18 -9 -12 -20 -11
-77 7 -37 11 -70 25 -74 31 -13 21 29 46 97 58 3 1 27 -16 54 -36z m985 27 c0
-5 -2 -10 -4 -10 -3 0 -8 5 -11 10 -3 6 -1 10 4 10 6 0 11 -4 11 -10z m2160 1
c0 -12 -35 -20 -50 -11 -9 6 -8 9 6 13 32 8 44 7 44 -2z m-3350 -11 c-20 -13
-43 -13 -35 0 3 6 16 10 28 10 18 0 19 -2 7 -10z m1250 -31 c0 -34 -14 -38
-30 -8 -9 15 -8 24 0 35 17 20 30 8 30 -27z m1881 26 c-18 -8 -38 -15 -45 -14
-15 1 46 28 64 28 8 0 0 -6 -19 -14z m94 5 c-3 -5 -13 -10 -21 -10 -8 0 -12 5
-9 10 3 6 13 10 21 10 8 0 12 -4 9 -10z m-370 -10 c3 -5 2 -10 -4 -10 -5 0
-13 5 -16 10 -3 6 -2 10 4 10 5 0 13 -4 16 -10z m405 -15 c-7 -8 -21 -15 -31
-15 -10 0 -20 -4 -23 -9 -3 -5 -15 -11 -27 -14 -30 -8 -13 7 41 36 48 26 60
27 40 2z m230 15 c0 -5 -6 -10 -14 -10 -8 0 -18 5 -21 10 -3 6 3 10 14 10 12
0 21 -4 21 -10z m-3460 -15 c0 -9 -9 -15 -25 -15 -26 0 -34 15 -12 23 23 10
37 7 37 -8z m407 2 c-4 -13 -56 -32 -64 -23 -3 3 -3 11 0 18 5 15 69 20 64 5z
m2356 -56 c39 -32 10 -51 -73 -50 -41 0 -43 1 -20 11 67 28 79 48 28 49 -18 0
-27 3 -20 6 6 2 12 11 12 18 0 8 8 18 17 24 14 7 20 4 29 -17 6 -15 18 -33 27
-41z m-1033 37 c0 -5 -9 -21 -20 -35 -12 -16 -18 -34 -15 -45 4 -10 2 -18 -4
-18 -14 0 -14 18 0 61 6 19 13 40 15 47 4 15 24 7 24 -10z m1375 2 c-10 -11
-23 -20 -28 -20 -6 0 -2 9 8 20 10 11 23 20 28 20 6 0 2 -9 -8 -20z m-2088
-16 c5 -16 -69 -27 -78 -12 -4 7 -6 15 -3 20 7 11 77 4 81 -8z m243 -26 c0 -6
-7 -5 -15 2 -8 7 -15 17 -15 22 0 6 7 5 15 -2 8 -7 15 -17 15 -22z m1775 22
c-3 -5 -13 -10 -21 -10 -8 0 -12 5 -9 10 3 6 13 10 21 10 8 0 12 -4 9 -10z
m275 -10 c-8 -6 -24 -9 -35 -9 -15 0 -13 4 10 14 32 14 49 10 25 -5z m-2761
-15 c83 -26 101 -39 83 -57 -8 -8 -25 -1 -60 21 -60 38 -73 40 -41 5 23 -25
23 -26 2 -15 -31 16 -74 14 -67 -3 4 -9 -5 -15 -26 -18 -39 -6 -75 12 -75 37
0 17 6 20 40 18 22 -1 32 1 22 4 -14 4 -16 8 -6 19 16 20 36 18 128 -11z m281
15 c0 -5 -4 -10 -10 -10 -5 0 -10 5 -10 10 0 6 5 10 10 10 6 0 10 -4 10 -10z
m66 -10 c8 0 14 -4 14 -10 0 -5 -7 -10 -15 -10 -8 0 -15 -4 -15 -9 0 -12 -99
-11 -106 0 -2 5 12 13 33 19 21 5 45 14 53 20 10 6 16 6 18 0 2 -6 10 -10 18
-10z m2034 10 c0 -5 -8 -10 -17 -10 -15 0 -16 2 -3 10 19 12 20 12 20 0z
m-2555 -10 c-3 -5 -13 -10 -21 -10 -8 0 -12 5 -9 10 3 6 13 10 21 10 8 0 12
-4 9 -10z m382 -7 c-9 -9 -19 -14 -23 -11 -10 10 6 28 24 28 15 0 15 -1 -1
-17z m-671 -9 c58 -17 76 -41 23 -30 -17 3 -41 6 -53 6 -11 0 -32 9 -46 20
l-25 20 23 0 c13 0 48 -7 78 -16z m1074 1 c10 -12 10 -15 -4 -15 -9 0 -16 7
-16 15 0 8 2 15 4 15 2 0 9 -7 16 -15z m-830 -17 c0 -4 -7 -8 -15 -8 -8 0 -15
4 -15 8 0 5 7 9 15 9 8 0 15 -4 15 -9z m2550 -8 c-27 -21 -40 -25 -40 -12 0 9
38 30 55 31 6 0 -1 -8 -15 -19z m-1824 -5 c18 -15 18 -15 -5 -13 -14 2 -26 9
-29 16 -5 17 10 15 34 -3z m1889 5 c-3 -5 -10 -10 -16 -10 -5 0 -9 5 -9 10 0
6 7 10 16 10 8 0 12 -4 9 -10z m-1730 -16 c19 -19 12 -32 -9 -15 -11 9 -15 9
-19 -1 -3 -7 -6 -3 -6 10 -1 26 11 28 34 6z m1340 6 c-3 -5 -10 -10 -16 -10
-5 0 -9 5 -9 10 0 6 7 10 16 10 8 0 12 -4 9 -10z m-300 -10 c3 -5 2 -10 -4
-10 -5 0 -13 5 -16 10 -3 6 -2 10 4 10 5 0 13 -4 16 -10z m709 -31 c-43 -45
-87 -69 -143 -78 -47 -7 -49 -7 -40 11 17 31 68 62 132 80 84 22 85 22 51 -13z
m-2444 0 c0 -6 -4 -7 -10 -4 -5 3 -10 11 -10 16 0 6 5 7 10 4 6 -3 10 -11 10
-16z m255 -9 c17 -19 17 -19 -9 -7 -14 7 -26 15 -26 20 0 13 17 7 35 -13z
m271 9 c14 -23 -13 -30 -37 -10 l-24 20 27 1 c15 0 30 -5 34 -11z m1599 1 c-3
-5 -18 -10 -33 -9 -24 0 -25 1 -7 9 28 12 47 12 40 0z m-1658 -20 c14 -11 23
-20 20 -20 -14 0 -57 24 -57 32 0 13 10 10 37 -12z m1063 16 c0 -9 -30 -14
-35 -6 -4 6 3 10 14 10 12 0 21 -2 21 -4z m741 -16 c-27 -23 -51 -26 -51 -6 0
17 15 24 50 25 l25 0 -24 -19z m-2065 -4 c20 -21 17 -28 -6 -14 -11 7 -20 16
-20 20 0 12 10 9 26 -6z m1307 -6 c18 0 19 -2 7 -10 -24 -16 -60 -12 -60 6 0
11 5 14 16 10 9 -3 25 -6 37 -6z m397 6 c0 -11 -19 -15 -25 -6 -3 5 1 10 9 10
9 0 16 -2 16 -4z m226 -8 c9 -14 -23 -38 -49 -38 -10 0 -32 -11 -49 -25 -44
-37 -65 -33 -37 6 39 55 116 88 135 57z m-1988 -16 c2 -7 -2 -10 -12 -6 -9 3
-16 11 -16 16 0 13 23 5 28 -10z m2078 -21 c-11 -18 -36 -13 -36 7 0 10 3 22
7 26 10 10 37 -20 29 -33z m-2029 -8 c-8 -7 -37 9 -31 19 3 5 12 4 20 -3 8 -6
13 -14 11 -16z m1043 17 c0 -5 -13 -10 -28 -10 -15 0 -34 -6 -41 -12 -11 -10
-10 -8 0 10 14 22 69 32 69 12z m504 -9 c3 -5 -4 -11 -17 -15 -33 -9 -57 -7
-57 3 0 17 65 27 74 12z m-1744 -11 c0 -10 -52 -40 -70 -40 -19 0 -10 27 13
38 28 14 57 15 57 2z m388 -20 c4 -12 2 -13 -10 -3 -11 10 -17 10 -26 1 -9 -9
-12 -8 -12 6 0 22 41 19 48 -4z m757 -10 c13 -25 13 -30 1 -30 -7 0 -16 10
-19 21 -4 15 -11 20 -21 16 -16 -6 -22 4 -9 16 14 15 33 6 48 -23z m780 20 c3
-5 2 -10 -4 -10 -5 0 -13 5 -16 10 -3 6 -2 10 4 10 5 0 13 -4 16 -10z m264 1
c11 -7 4 -14 -29 -31 -49 -25 -71 -15 -40 18 22 23 46 28 69 13z m-679 -8 c0
-14 -19 -38 -25 -32 -8 8 5 39 16 39 5 0 9 -3 9 -7z m-250 -32 c0 -29 -37 -81
-57 -81 -17 0 -10 90 7 100 30 19 50 12 50 -19z m637 13 c9 -25 -35 -63 -129
-110 -49 -24 -88 -42 -88 -40 0 2 -3 11 -6 20 -5 13 1 16 25 16 18 0 41 9 53
20 24 22 18 26 -15 9 -30 -14 23 32 82 71 50 34 69 37 78 14z m193 12 c0 -2
-8 -10 -17 -17 -16 -13 -17 -12 -4 4 13 16 21 21 21 13z m-490 -62 c-7 -7 -18
-14 -26 -14 -25 0 -24 18 4 46 27 29 27 29 30 6 2 -13 -2 -30 -8 -38z m100 51
c0 -2 -10 -10 -22 -16 -21 -11 -22 -11 -9 4 13 16 31 23 31 12z m-1215 -15
c-3 -5 -11 -10 -16 -10 -6 0 -7 5 -4 10 3 6 11 10 16 10 6 0 7 -4 4 -10z
m-315 -16 c0 -2 -7 -4 -15 -4 -8 0 -15 4 -15 10 0 5 7 7 15 4 8 -4 15 -8 15
-10z m935 0 c28 -19 31 -29 10 -37 -9 -4 -19 5 -29 23 -17 34 -14 36 19 14z
m-979 -31 c-7 -7 -26 7 -26 19 0 6 6 6 15 -2 9 -7 13 -15 11 -17z m416 1 c-4
-24 -27 -43 -38 -32 -3 3 1 17 7 32 16 34 38 34 31 0z m538 -5 c0 -11 -4 -17
-10 -14 -5 3 -10 13 -10 21 0 8 5 14 10 14 6 0 10 -9 10 -21z m-496 -4 c3 -8
1 -15 -4 -15 -6 0 -10 7 -10 15 0 8 2 15 4 15 2 0 6 -7 10 -15z m463 -7 c-3
-8 -6 -5 -6 6 -1 11 2 17 5 13 3 -3 4 -12 1 -19z m-1050 -15 c-9 -8 -48 8 -42
18 4 5 14 5 26 -2 12 -6 18 -13 16 -16z m2003 17 c0 -13 -100 -70 -125 -70
-16 0 -12 7 20 40 30 31 47 40 72 40 18 0 33 -4 33 -10z m205 0 c3 -5 2 -10
-4 -10 -5 0 -13 5 -16 10 -3 6 -2 10 4 10 5 0 13 -4 16 -10z m55 2 c0 -13 -12
-22 -22 -16 -10 6 -1 24 13 24 5 0 9 -4 9 -8z m-2068 -19 c20 -18 25 -38 6
-26 -7 4 -21 6 -30 5 -12 -2 -15 2 -11 18 6 24 11 25 35 3z m118 -4 c0 -6 -4
-7 -10 -4 -5 3 -10 11 -10 16 0 6 5 7 10 4 6 -3 10 -11 10 -16z m2300 15 c0
-3 -7 -12 -15 -20 -11 -11 -20 -12 -32 -5 -16 9 -16 11 7 20 30 12 40 13 40 5z
m60 2 c0 -2 -7 -6 -15 -10 -8 -3 -15 -1 -15 4 0 6 7 10 15 10 8 0 15 -2 15 -4z
m-1093 -12 c-3 -3 -12 -4 -19 -1 -8 3 -5 6 6 6 11 1 17 -2 13 -5z m-87 -44
c-16 -31 -23 -18 -8 15 7 15 14 23 16 17 2 -6 -2 -21 -8 -32z m-1091 4 c19
-18 8 -28 -21 -20 -35 9 -51 22 -43 35 8 14 43 5 64 -15z m671 22 c0 -2 3 -11
6 -20 4 -12 0 -16 -15 -16 -12 0 -21 2 -21 4 0 2 -3 11 -6 20 -4 12 0 16 15
16 12 0 21 -2 21 -4z m30 -6 c0 -5 -4 -10 -10 -10 -5 0 -10 5 -10 10 0 6 5 10
10 10 6 0 10 -4 10 -10z m70 -10 c0 -11 -7 -20 -15 -20 -8 0 -15 9 -15 20 0
11 7 20 15 20 8 0 15 -9 15 -20z m390 0 c0 -10 -31 -23 -38 -15 -8 7 19 35 29
29 5 -3 9 -9 9 -14z m910 5 c-14 -17 -46 -20 -55 -6 -5 10 15 18 49 20 15 1
16 -2 6 -14z m193 8 c-7 -2 -19 -2 -25 0 -7 3 -2 5 12 5 14 0 19 -2 13 -5z
m-1413 -18 c0 -16 -30 -35 -54 -35 -16 0 -22 30 -9 43 13 14 63 7 63 -8z
m1028 -2 c-10 -2 -28 -2 -40 0 -13 2 -5 4 17 4 22 1 32 -1 23 -4z m-2158 -25
c0 -16 -3 -19 -11 -11 -6 6 -8 16 -5 22 11 17 16 13 16 -11z m181 12 c30 -17
22 -30 -10 -17 -17 6 -28 15 -25 19 7 10 11 10 35 -2z m-524 -6 c-3 -3 -12 -4
-19 -1 -8 3 -5 6 6 6 11 1 17 -2 13 -5z m421 -22 c6 -18 -15 -14 -22 4 -4 10
-1 14 6 12 6 -2 14 -10 16 -16z m1457 8 c-3 -5 -11 -10 -16 -10 -6 0 -7 5 -4
10 3 6 11 10 16 10 6 0 7 -4 4 -10z m-1790 -40 c-14 -15 -20 -17 -26 -8 -11
17 21 52 35 38 6 -6 3 -16 -9 -30z m112 4 c12 -12 14 -54 2 -54 -12 0 -49 52
-49 69 0 14 -2 14 -10 1 -5 -8 -10 -10 -10 -4 0 26 30 21 67 -12z m781 2 c5
-23 -30 -21 -50 3 -12 14 -13 21 -5 24 19 7 52 -9 55 -27z m752 15 c-5 -11
-15 -23 -20 -26 -14 -9 -12 19 2 33 19 19 30 14 18 -7z m-1344 -2 c10 -17 -13
-36 -27 -22 -12 12 -4 33 11 33 5 0 12 -5 16 -11z m394 -35 l35 -18 -35 -8
c-98 -25 -171 -37 -222 -38 -51 0 -58 2 -58 19 0 28 14 33 46 16 37 -19 58
-19 50 0 -4 11 1 15 19 15 13 0 27 5 31 11 5 8 -1 10 -20 7 -17 -3 -25 -1 -23
6 5 14 66 26 73 15 3 -5 3 -19 -1 -32 l-6 -22 20 24 c12 13 21 30 21 39 0 14
2 14 18 0 9 -9 33 -24 52 -34z m807 -19 c-3 -36 -13 -77 -21 -92 l-15 -28 -1
46 c0 43 26 139 37 139 3 0 3 -29 0 -65z m-217 43 c0 -9 3 -9 12 0 35 35 37
-3 3 -41 -28 -29 -58 -37 -49 -12 4 8 1 15 -5 15 -6 0 -11 5 -11 11 0 7 -8 18
-17 25 -16 12 -13 13 25 14 26 0 42 -4 42 -12z m-805 -28 c-3 -5 -11 -10 -16
-10 -6 0 -7 5 -4 10 3 6 11 10 16 10 6 0 7 -4 4 -10z m-152 -19 c5 -5 -3 -11
-18 -13 -14 -3 -28 -1 -31 4 -3 5 -16 14 -28 19 -15 7 -9 8 24 4 25 -3 49 -10
53 -14z m1457 15 c0 -3 -4 -8 -10 -11 -5 -3 -10 -1 -10 4 0 6 5 11 10 11 6 0
10 -2 10 -4z m-1481 -52 c2 -2 2 -7 -2 -10 -9 -9 -67 6 -67 18 0 9 58 2 69 -8z
m46 6 c-3 -5 -11 -10 -16 -10 -6 0 -7 5 -4 10 3 6 11 10 16 10 6 0 7 -4 4 -10z
m1552 4 c-3 -3 -12 -4 -19 -1 -8 3 -5 6 6 6 11 1 17 -2 13 -5z m-1571 -39
c-19 -15 -46 -20 -46 -10 0 6 40 24 55 24 6 0 1 -6 -9 -14z m1461 -21 c-3 -3
-12 -4 -19 -1 -8 3 -5 6 6 6 11 1 17 -2 13 -5z m-587 -40 c0 -8 -4 -12 -10 -9
-5 3 -10 13 -10 21 0 8 5 12 10 9 6 -3 10 -13 10 -21z m570 6 c20 -6 14 -8
-28 -9 -33 -1 -51 3 -47 9 7 12 39 12 75 0z m-120 -29 c0 -12 -20 -25 -27 -18
-7 7 6 27 18 27 5 0 9 -4 9 -9z m100 -20 c0 -11 -6 -22 -12 -25 -7 -3 -3 -3
10 0 16 4 22 1 22 -10 0 -20 -41 -30 -92 -22 -62 10 -64 16 -16 47 51 34 88
38 88 10z m-339 -118 c-8 -14 -10 -3 -11 43 0 33 3 64 8 68 11 12 14 -92 3
-111z"/>
<path d="M1850 2325 c-8 -9 -8 -15 -2 -15 12 0 26 19 19 26 -2 2 -10 -2 -17
-11z"/>
<path d="M1180 2250 c-8 -5 -11 -12 -7 -16 4 -4 13 -2 19 4 6 6 10 14 7 16 -2
3 -11 1 -19 -4z"/>
<path d="M1155 2200 c3 -5 11 -10 16 -10 6 0 7 5 4 10 -3 6 -11 10 -16 10 -6
0 -7 -4 -4 -10z"/>
<path d="M2000 1933 c0 -6 -3 -18 -6 -27 -3 -9 -1 -16 5 -16 17 0 25 30 12 43
-8 8 -11 8 -11 0z"/>
<path d="M2070 1885 c-14 -16 -10 -18 14 -9 9 3 16 10 16 15 0 14 -16 11 -30
-6z"/>
<path d="M715 2000 c-3 -5 1 -10 9 -10 8 0 18 5 21 10 3 6 -1 10 -9 10 -8 0
-18 -4 -21 -10z"/>
<path d="M550 1980 c0 -13 11 -13 30 0 12 8 11 10 -7 10 -13 0 -23 -4 -23 -10z"/>
<path d="M2320 1620 c0 -5 5 -10 11 -10 5 0 7 5 4 10 -3 6 -8 10 -11 10 -2 0
-4 -4 -4 -10z"/>
<path d="M2960 1630 c0 -5 5 -10 10 -10 6 0 10 5 10 10 0 6 -4 10 -10 10 -5 0
-10 -4 -10 -10z"/>
<path d="M1320 3402 c0 -10 22 -32 32 -32 5 0 3 9 -4 20 -13 20 -28 27 -28 12z"/>
<path d="M3310 3205 c0 -16 16 -20 24 -6 3 5 -1 11 -9 15 -9 3 -15 0 -15 -9z"/>
<path d="M3205 3171 c-6 -5 -19 -11 -30 -14 -11 -3 -5 -5 14 -4 19 1 36 8 39
15 4 14 -10 16 -23 3z"/>
<path d="M3340 3160 c0 -5 5 -10 10 -10 6 0 10 5 10 10 0 6 -4 10 -10 10 -5 0
-10 -4 -10 -10z"/>
<path d="M790 3110 c0 -5 7 -10 15 -10 8 0 15 5 15 10 0 6 -7 10 -15 10 -8 0
-15 -4 -15 -10z"/>
<path d="M3680 3099 c0 -5 5 -7 10 -4 6 3 10 8 10 11 0 2 -4 4 -10 4 -5 0 -10
-5 -10 -11z"/>
<path d="M776 3066 c10 -8 21 -12 24 -10 5 6 -21 24 -34 24 -6 0 -1 -6 10 -14z"/>
<path d="M3960 2961 c0 -5 7 -12 16 -15 24 -9 27 -7 10 9 -17 17 -26 19 -26 6z"/>
<path d="M3375 2940 c-3 -5 -1 -10 4 -10 6 0 11 5 11 10 0 6 -2 10 -4 10 -3 0
-8 -4 -11 -10z"/>
<path d="M3830 2810 c0 -11 5 -20 10 -20 6 0 10 9 10 20 0 11 -4 20 -10 20 -5
0 -10 -9 -10 -20z"/>
<path d="M3905 2790 c-3 -11 -20 -24 -38 -29 -29 -8 -29 -9 -7 -10 28 -1 37 4
64 37 16 19 17 22 3 22 -9 0 -18 -9 -22 -20z"/>
<path d="M3943 2781 c-13 -11 -23 -22 -23 -25 0 -13 28 -5 43 12 32 35 17 43
-20 13z"/>
<path d="M4045 2660 c3 -5 10 -10 16 -10 5 0 9 5 9 10 0 6 -7 10 -16 10 -8 0
-12 -4 -9 -10z"/>
<path d="M441 2319 c16 -16 23 -18 35 -9 20 17 8 30 -27 30 l-29 0 21 -21z"/>
<path d="M440 2230 c0 -5 5 -10 11 -10 5 0 7 5 4 10 -3 6 -8 10 -11 10 -2 0
-4 -4 -4 -10z"/>
<path d="M105 2114 c-19 -15 -19 -15 9 -12 16 2 31 9 34 16 5 17 -19 15 -43
-4z"/>
<path d="M90 2046 c0 -8 5 -18 10 -21 6 -3 10 1 10 9 0 8 -4 18 -10 21 -5 3
-10 -1 -10 -9z"/>
<path d="M70 1980 c0 -5 6 -10 14 -10 8 0 18 5 21 10 3 6 -3 10 -14 10 -12 0
-21 -4 -21 -10z"/>
<path d="M2 1909 c2 -7 10 -15 17 -17 8 -3 12 1 9 9 -2 7 -10 15 -17 17 -8 3
-12 -1 -9 -9z"/>
<path d="M465 1799 c-11 -17 0 -20 21 -4 17 13 17 14 2 15 -9 0 -20 -5 -23
-11z"/>
<path d="M3617 1749 c7 -7 15 -10 18 -7 3 3 -2 9 -12 12 -14 6 -15 5 -6 -5z"/>
<path d="M3675 1750 c3 -5 8 -10 11 -10 2 0 4 5 4 10 0 6 -5 10 -11 10 -5 0
-7 -4 -4 -10z"/>
<path d="M3735 1690 c3 -5 11 -10 16 -10 6 0 7 5 4 10 -3 6 -11 10 -16 10 -6
0 -7 -4 -4 -10z"/>
<path d="M3495 1639 c-4 -6 -5 -12 -2 -15 7 -7 37 7 37 17 0 13 -27 11 -35 -2z"/>
<path d="M3635 1623 c-16 -3 -34 -9 -39 -14 -10 -9 74 -11 109 -1 l20 5 -20 8
c-21 8 -24 8 -70 2z"/>
<path d="M3485 1570 c-3 -5 -1 -10 4 -10 6 0 11 5 11 10 0 6 -2 10 -4 10 -3 0
-8 -4 -11 -10z"/>
<path d="M555 1560 c3 -5 8 -10 11 -10 2 0 4 5 4 10 0 6 -5 10 -11 10 -5 0 -7
-4 -4 -10z"/>
<path d="M473 1510 c-13 -5 -23 -16 -23 -25 0 -21 30 -31 41 -14 8 12 11 12
19 -1 9 -13 11 -13 20 0 14 21 12 28 -9 40 -22 11 -19 11 -48 0z"/>
<path d="M571 1474 c0 -11 3 -14 6 -6 3 7 2 16 -1 19 -3 4 -6 -2 -5 -13z"/>
<path d="M3646 1365 c-3 -8 -1 -15 4 -15 6 0 10 7 10 15 0 8 -2 15 -4 15 -2 0
-6 -7 -10 -15z"/>
<path d="M740 1349 c0 -25 18 -45 30 -33 7 7 5 16 -10 29 -15 14 -20 15 -20 4z"/>
<path d="M740 1288 c-8 -7 -30 -20 -47 -27 -18 -7 -33 -17 -33 -22 0 -12 17
-11 25 1 3 6 17 10 29 10 26 0 50 23 44 41 -3 8 -8 8 -18 -3z"/>
<path d="M780 1237 c0 -17 26 -47 41 -47 16 0 10 16 -16 40 -20 19 -25 20 -25
7z"/>
<path d="M3209 1219 c16 -6 28 -6 35 1 7 7 -1 10 -24 9 -33 0 -34 -1 -11 -10z"/>
<path d="M3194 1195 c11 -8 24 -15 30 -15 5 0 1 7 -10 15 -10 8 -23 14 -29 14
-5 0 -1 -6 9 -14z"/>
</g>
</svg>
